<?xml version="1.0" encoding="utf-8"?>
<!-- Generator: Adobe Illustrator 22.1.0, SVG Export Plug-In . SVG Version: 6.00 Build 0)  -->
<svg version="1.1" id="Layer_1" xmlns="http://www.w3.org/2000/svg" xmlns:xlink="http://www.w3.org/1999/xlink" x="0px" y="0px"
	 viewBox="0 0 13.6 13.5" style="enable-background:new 0 0 13.6 13.5;" xml:space="preserve">
<style type="text/css">
	.st0{fill:#2798D2;}
</style>
<g>
	<path class="st0" d="M6.8,1.3c3,0,5.5,2.5,5.5,5.5s-2.5,5.5-5.5,5.5c-3,0-5.5-2.5-5.5-5.5S3.8,1.3,6.8,1.3 M6.8,0C3,0,0,3,0,6.8
		s3,6.8,6.8,6.8s6.8-3,6.8-6.8S10.5,0,6.8,0L6.8,0z"/>
</g>
<text transform="matrix(1 0 0 1 464.2656 693.5417)" style="font-family:'MyriadPro-Regular'; font-size:12px;">https://www.reactioncommerce.com</text>
<g>
	<path class="st0" d="M8.6,6.5C8,6.5,7.5,6.3,7.1,5.8C7,5.8,6.9,5.7,6.8,5.7c0,0,0,0,0,0c-0.1,0-0.2,0-0.3,0.1
		C6.1,6.3,5.6,6.5,5,6.5c-1.1,0-2-0.9-2.1-2c0-0.1,0-0.1,0.1-0.2c0,0,0.1-0.1,0.2-0.1c0,0,0,0,0,0c0.1,0,0.2,0.1,0.2,0.2
		c0,0.9,0.7,1.5,1.6,1.5c0.7,0,1.3-0.5,1.5-1.2c0-0.1,0.1-0.2,0.1-0.4c0-0.3-0.1-0.6-0.2-0.8L5.6,2.5c0,0,0-0.1,0-0.1
		c0,0,0-0.1,0.1-0.1h2.2c0.1,0,0.1,0,0.1,0.1c0,0,0,0.1,0,0.1L7.2,3.7C7.1,3.9,7,4.2,7,4.5c0,0.2,0,0.3,0,0.4C7.2,5.6,7.9,6,8.6,6
		c0.9,0,1.6-0.7,1.6-1.5c0-0.1,0.1-0.2,0.2-0.2c0.1,0,0.2,0.1,0.2,0.2C10.6,5.6,9.7,6.5,8.6,6.5z"/>
	<g>
		<path class="st0" d="M7.4,2.7L6.9,3.5C6.9,3.6,6.8,3.7,6.8,3.8c0-0.1-0.1-0.2-0.1-0.3L6.2,2.7H7.4 M10.5,4.5L10.5,4.5L10.5,4.5
			 M6.8,5.2c0,0.1,0,0.1,0.1,0.2c0,0,0,0-0.1,0c0,0,0,0,0,0c0,0,0,0-0.1,0C6.7,5.3,6.8,5.2,6.8,5.2 M7.9,2H5.7
			C5.3,2,5.1,2.4,5.3,2.7L6,3.9c0.1,0.2,0.2,0.4,0.2,0.6c0,0,0,0,0,0c0,0.1,0,0.2,0,0.3C6,5.3,5.5,5.7,5,5.7c-0.7,0-1.2-0.5-1.2-1.2
			c0-0.3-0.3-0.6-0.6-0.6c0,0,0,0,0,0c-0.3,0-0.6,0.3-0.6,0.6c0,1.3,1.1,2.4,2.4,2.4c0.7,0,1.4-0.3,1.8-0.8c0.5,0.5,1.1,0.8,1.8,0.8
			c1.3,0,2.4-1.1,2.4-2.4c0-0.3-0.3-0.6-0.6-0.6c0,0,0,0,0,0c-0.3,0-0.6,0.3-0.6,0.6c0,0.7-0.5,1.2-1.2,1.2c-0.5,0-1-0.4-1.2-0.9
			c0-0.1,0-0.2,0-0.3c0,0,0,0,0,0c0-0.2,0.1-0.4,0.2-0.6l0.7-1.1C8.5,2.4,8.3,2,7.9,2L7.9,2z"/>
	</g>
</g>
</svg>
